 <svg version="1.0" xmlns="http://www.w3.org/2000/svg" width="78.000000pt" height="78.000000pt" viewBox="0 0 78.000000 78.000000" preserveAspectRatio="xMidYMid meet">
<metadata>
Created by potrace 1.12, written by Peter Selinger 2001-2015
</metadata>
<g transform="translate(0.000000,78.000000) scale(0.0110000,-0.0110000)" fill="#000000" stroke="none">
<path d="M3255 4111 c-16 -5 -71 -28 -122 -52 -111 -53 -231 -156 -268 -229
-14 -27 -30 -52 -36 -56 -40 -25 -75 -252 -58 -384 14 -115 27 -159 53 -195
13 -16 32 -48 44 -70 25 -49 129 -147 211 -199 104 -66 267 -89 446 -62 93 14
118 22 160 50 28 18 66 43 86 54 47 29 156 151 175 199 9 21 29 64 45 96 37
72 50 175 39 297 -7 74 -14 99 -49 164 -23 43 -41 84 -41 91 0 25 -198 213
-238 226 -20 6 -64 25 -97 42 -57 29 -67 31 -190 33 -71 2 -143 -1 -160 -5z"></path>
</g>
</svg>
